<?xml version="1.0" encoding="utf-8"?>
<!DOCTYPE svg PUBLIC "-//W3C//DTD SVG 1.1//EN" "http://www.w3.org/Graphics/SVG/1.1/DTD/svg11.dtd">
<svg version="1.1" id="Layer_1" xmlns="http://www.w3.org/2000/svg" xmlns:xlink="http://www.w3.org/1999/xlink" x="0px" y="0px"
	 width="200.522px" height="50.421px" viewBox="1.179 21.51 20.522 5.421" enable-background="new 1.179 21.51 20.522 5.421"
	 xml:space="preserve">
<title  id="title">NESTLÉ A gusto con la vida</title>
<g>
	<path fill="#252B60" d="M11.393,22.924c-0.027,0.032-0.042,0.068-0.042,0.131v1.734h-0.01c0,0-0.949-1.691-0.995-1.77
		c-0.032-0.055-0.068-0.093-0.116-0.122c-0.048-0.027-0.097-0.044-0.193-0.044H9.724c-0.073,0-0.119,0.025-0.151,0.063
		c-0.027,0.032-0.042,0.069-0.042,0.132v2.458c0,0.062,0.015,0.099,0.042,0.131C9.605,25.676,9.651,25.7,9.724,25.7h0.177
		c0.073,0,0.119-0.024,0.151-0.063c0.027-0.032,0.042-0.068,0.042-0.131v-1.776h0.01c0,0,0.985,1.745,1.025,1.811
		c0.055,0.091,0.149,0.16,0.283,0.16h0.304c0.072,0,0.118-0.024,0.15-0.063c0.027-0.032,0.042-0.068,0.042-0.131v-2.217h3.989
		c0.04,0,0.071-0.012,0.094-0.031c0.025-0.023,0.036-0.054,0.036-0.099V22.99c0-0.045-0.011-0.076-0.036-0.099
		c-0.023-0.019-0.054-0.031-0.094-0.031h-4.354C11.471,22.86,11.425,22.885,11.393,22.924 M13.134,23.581
		c-0.663,0-1.035,0.518-1.035,1.064c0,0.582,0.399,1.094,1.039,1.094c0.319,0,0.632-0.12,0.812-0.332
		c0.079-0.092,0.142-0.22,0.142-0.298c0-0.026-0.006-0.05-0.021-0.067c-0.016-0.019-0.038-0.03-0.079-0.03h-0.307
		c-0.062,0-0.104,0.022-0.134,0.069c-0.09,0.131-0.22,0.2-0.411,0.2c-0.287,0-0.472-0.218-0.485-0.456h1.329
		c0.059,0,0.101-0.014,0.13-0.043c0.032-0.03,0.047-0.074,0.047-0.156c0-0.25-0.078-0.51-0.242-0.708
		C13.751,23.716,13.495,23.581,13.134,23.581 M15.184,23.581c-0.523,0-0.867,0.248-0.867,0.646c0,0.141,0.052,0.256,0.136,0.346
		c0.097,0.104,0.237,0.177,0.439,0.229l0.438,0.111c0.12,0.029,0.227,0.066,0.227,0.172c0,0.162-0.172,0.217-0.355,0.217
		c-0.09,0-0.183-0.017-0.26-0.055c-0.053-0.027-0.099-0.065-0.132-0.117c-0.029-0.043-0.038-0.076-0.082-0.102
		c-0.027-0.015-0.059-0.017-0.103-0.017h-0.237c-0.052,0-0.077,0.016-0.094,0.036c-0.017,0.021-0.023,0.052-0.023,0.082
		c0,0.076,0.027,0.172,0.09,0.258c0.145,0.195,0.449,0.352,0.836,0.352c0.382,0,0.911-0.158,0.911-0.67
		c0-0.132-0.038-0.244-0.108-0.336c-0.09-0.117-0.218-0.197-0.436-0.252l-0.434-0.111c-0.179-0.046-0.264-0.078-0.264-0.189
		c0-0.107,0.096-0.193,0.317-0.193c0.13,0,0.248,0.029,0.324,0.109c0.063,0.067,0.052,0.101,0.102,0.128
		c0.03,0.015,0.065,0.015,0.118,0.015h0.216c0.035,0,0.06-0.006,0.078-0.027c0.016-0.017,0.025-0.043,0.025-0.087
		c0-0.1-0.065-0.228-0.179-0.325C15.714,23.668,15.474,23.581,15.184,23.581 M16.373,23.653h-0.107c-0.04,0-0.071,0.011-0.093,0.03
		c-0.025,0.023-0.037,0.054-0.037,0.1v0.131c0,0.046,0.012,0.077,0.037,0.1c0.022,0.019,0.053,0.03,0.093,0.03h0.107v0.954
		c0,0.244,0.067,0.396,0.191,0.52c0.115,0.111,0.264,0.183,0.523,0.183h0.162c0.04,0,0.071-0.011,0.094-0.03
		c0.025-0.023,0.04-0.054,0.04-0.1v-0.166c0-0.046-0.015-0.076-0.04-0.1c-0.023-0.02-0.054-0.03-0.094-0.03h-0.023
		c-0.103,0-0.174-0.026-0.221-0.073c-0.058-0.053-0.086-0.135-0.086-0.242v-0.915h0.347c0.041,0,0.071-0.011,0.094-0.03
		c0.025-0.023,0.036-0.054,0.036-0.1v-0.131c0-0.046-0.011-0.077-0.036-0.1c-0.023-0.019-0.053-0.03-0.094-0.03h-0.345v-0.623
		c0-0.05-0.016-0.086-0.039-0.115c-0.028-0.034-0.068-0.055-0.128-0.055h-0.216c-0.059,0-0.099,0.021-0.128,0.055
		c-0.022,0.029-0.038,0.065-0.038,0.115V23.653z M17.542,25.53c0,0.05,0.015,0.086,0.038,0.114c0.028,0.035,0.069,0.056,0.128,0.056
		h0.227c0.059,0,0.1-0.021,0.128-0.056c0.023-0.028,0.038-0.064,0.038-0.114v-2.5c0-0.05-0.015-0.086-0.038-0.115
		c-0.028-0.034-0.069-0.055-0.128-0.055h-0.227c-0.059,0-0.1,0.021-0.128,0.055c-0.023,0.029-0.038,0.065-0.038,0.115V25.53z
		 M12.659,24.417c0.024-0.235,0.204-0.411,0.477-0.411c0.268,0,0.453,0.176,0.478,0.411H12.659z M20.169,23.289
		c0.04,0,0.071-0.012,0.094-0.031c0.024-0.023,0.036-0.054,0.036-0.099v-0.178c0-0.069-0.013-0.103-0.036-0.128
		c-0.021-0.023-0.056-0.036-0.094-0.036c-0.031,0-0.061,0.003-0.113,0.009l-1.524,0.151c-0.044,0.004-0.065,0.017-0.08,0.035
		c-0.017,0.019-0.025,0.044-0.025,0.078v0.099c0,0.038,0.008,0.056,0.021,0.071c0.017,0.019,0.042,0.029,0.077,0.029H20.169z
		 M19.327,23.581c-0.663,0-1.035,0.518-1.035,1.064c0,0.582,0.399,1.094,1.039,1.094c0.319,0,0.632-0.12,0.812-0.332
		c0.078-0.092,0.142-0.22,0.142-0.298c0-0.026-0.006-0.05-0.021-0.067c-0.016-0.019-0.039-0.03-0.079-0.03h-0.307
		c-0.062,0-0.104,0.022-0.134,0.069c-0.09,0.131-0.22,0.2-0.411,0.2c-0.287,0-0.472-0.218-0.485-0.456h1.333
		c0.06,0,0.102-0.014,0.13-0.043c0.033-0.03,0.048-0.074,0.048-0.156c0-0.25-0.078-0.51-0.243-0.708
		C19.948,23.716,19.688,23.581,19.327,23.581 M18.852,24.417c0.025-0.235,0.205-0.411,0.478-0.411c0.268,0,0.453,0.176,0.478,0.411
		H18.852z"/>
	<path fill="#252B60" d="M7.377,23.311c-0.495-0.737-0.929-0.986-1.051-1.103c-0.134-0.129-0.236-0.275-0.301-0.346
		C5.88,21.705,5.692,21.51,5.384,21.51c-0.297,0-0.494,0.194-0.558,0.361c-0.019,0.048-0.033,0.106-0.046,0.127
		c-0.029,0.048-0.161,0.272-0.215,0.361h0.246l-0.12,0.226c0.139-0.031,0.239-0.053,0.372-0.053c0.118,0,0.203,0.028,0.24,0.102
		c0.069,0.138,0.069,0.557,0.186,0.872c0.109,0.296,0.375,0.585,0.674,0.808c0.004,0.002,0.008,0.004,0.013,0.004
		c0.015,0,0.024-0.011,0.024-0.021c0-0.008-0.003-0.013-0.009-0.02c-0.25-0.25-0.453-0.526-0.562-0.829
		c-0.108-0.295-0.09-0.709-0.185-0.895C5.382,22.432,5.249,22.4,5.126,22.4c-0.098,0-0.19,0.02-0.232,0.029l0.107-0.182H4.82
		c0.038-0.068,0.078-0.13,0.098-0.167c0.017-0.032,0.024-0.072,0.045-0.126c0.069-0.174,0.222-0.285,0.421-0.285
		c0.25,0,0.396,0.161,0.541,0.322c0.067,0.074,0.176,0.229,0.302,0.345c0.086,0.08,0.251,0.169,0.505,0.431
		c0.146,0.151,0.316,0.348,0.496,0.611c0.642,0.939,1.063,1.767,1.298,2.413l-0.004,0.002c-0.673-0.457-1.257-0.889-1.727-1.421
		c-0.333-0.379-0.623-0.817-0.875-1.376c-0.017-0.037-0.032-0.072-0.048-0.108c-0.007-0.015-0.013-0.019-0.024-0.019
		c-0.013,0-0.022,0.009-0.022,0.023c0,0.014,0.006,0.046,0.021,0.11c0.134,0.58,0.506,1.099,0.904,1.531
		C7.145,24.961,7.592,25.33,7.96,25.6l0.287,0.82c0.007,0.021,0.015,0.041,0.015,0.062c0,0.015-0.004,0.026-0.013,0.034
		c-0.008,0.008-0.019,0.012-0.042,0.012H8.12c-0.037,0-0.052-0.005-0.065-0.016c-0.013-0.01-0.022-0.026-0.029-0.045
		C8,26.39,7.849,25.958,7.82,25.87c-0.005-0.016-0.015-0.021-0.025-0.021c-0.013,0-0.022,0.01-0.022,0.021s0.004,0.023,0.011,0.061
		c0.039,0.196,0.083,0.417,0.102,0.5c0.008,0.039,0.018,0.075,0.018,0.102c0,0.023-0.005,0.037-0.025,0.057l-0.089,0.091
		c-0.021,0.021-0.033,0.026-0.05,0.026c-0.021,0-0.039-0.014-0.046-0.052C7.59,26.184,7.437,25.6,7.397,25.438
		c-0.009-0.036-0.016-0.057-0.037-0.057c-0.019,0-0.025,0.014-0.025,0.029c0,0.012,0.002,0.027,0.004,0.037
		c0.024,0.168,0.121,0.777,0.226,1.334c0.019,0.096,0.055,0.149,0.137,0.149c0.037,0,0.073-0.015,0.106-0.047
		c0.055-0.054,0.07-0.069,0.136-0.133c0.046-0.045,0.078-0.063,0.158-0.063h0.196c0.047,0,0.072-0.012,0.095-0.033
		c0.021-0.02,0.034-0.048,0.034-0.088c0-0.041-0.01-0.074-0.025-0.115c-0.051-0.136-0.213-0.594-0.261-0.723l0.004-0.003
		c0.167,0.126,0.408,0.286,0.514,0.286c0.033,0,0.053-0.014,0.053-0.066C8.712,25.701,8.306,24.695,7.377,23.311"/>
	<path fill="#252B60" d="M2.816,21.767c0.028-0.061,0.089-0.104,0.162-0.104c0.1,0,0.18,0.077,0.18,0.18
		c0,0.06-0.028,0.111-0.072,0.143c0.009,0.035,0.016,0.065,0.016,0.095c0,0.111-0.066,0.19-0.188,0.231
		c-0.016,0.068-0.045,0.129-0.093,0.174c-0.08,0.077-0.161,0.077-0.161,0.109c0,0.017,0.012,0.028,0.045,0.028
		c0.147,0,0.292-0.083,0.31-0.219c0.141-0.048,0.226-0.19,0.226-0.303c0-0.029-0.002-0.054-0.015-0.078
		c0.039-0.037,0.084-0.101,0.084-0.195c0-0.083-0.036-0.166-0.1-0.227c-0.056-0.055-0.134-0.09-0.226-0.09
		c-0.133,0-0.219,0.072-0.269,0.142c-0.145,0-0.332,0.161-0.332,0.391h-0.02c-0.013-0.08-0.096-0.133-0.165-0.137
		c-0.056-0.167-0.182-0.311-0.389-0.311c-0.024,0-0.053,0.001-0.079,0.005c-0.061-0.056-0.129-0.09-0.223-0.09
		c-0.181,0-0.328,0.145-0.328,0.328c0,0.114,0.052,0.192,0.15,0.262c0,0-0.001,0.015-0.001,0.021c0,0.146,0.159,0.375,0.396,0.375
		c0,0.037,0.047,0.087,0.099,0.097v0.019h-0.02c-0.326,0-0.464,0.157-0.464,0.262c-0.097,0.04-0.159,0.147-0.159,0.247
		c0,0.198,0.145,0.339,0.336,0.339c0.064,0,0.129-0.025,0.174-0.06c0.033,0.012,0.076,0.019,0.12,0.019
		c0.091,0,0.194-0.032,0.266-0.137c0.011,0.001,0.02,0.001,0.03,0.001c0.117,0,0.218-0.077,0.271-0.178
		c0.014-0.025,0.019-0.045,0.019-0.06s-0.007-0.026-0.021-0.026c-0.019,0-0.021,0.017-0.054,0.048
		c-0.075,0.068-0.189,0.093-0.306,0.093c-0.057,0.084-0.128,0.128-0.209,0.128c-0.06,0-0.106-0.016-0.154-0.048
		c-0.039,0.042-0.086,0.06-0.133,0.06c-0.105,0-0.18-0.073-0.18-0.179c0-0.075,0.048-0.141,0.114-0.166
		c0.012-0.132,0.153-0.221,0.329-0.221c0.022,0,0.045,0.001,0.069,0.004c0.026-0.042,0.09-0.087,0.181-0.1
		c0.019-0.002,0.033-0.004,0.044-0.009s0.016-0.016,0.016-0.028c0-0.011-0.004-0.02-0.015-0.027
		c-0.01-0.005-0.025-0.008-0.044-0.012c-0.084-0.016-0.184-0.068-0.234-0.194c-0.201,0-0.348-0.161-0.348-0.342v-0.012
		c-0.066-0.027-0.112-0.09-0.112-0.166c0-0.1,0.079-0.18,0.178-0.18c0.06,0,0.112,0.029,0.145,0.073
		c0.028-0.008,0.06-0.011,0.09-0.011c0.148,0,0.308,0.094,0.339,0.278c0.191,0.017,0.236,0.179,0.248,0.247
		c0.007,0.035,0.012,0.064,0.035,0.064c0.024,0,0.029-0.027,0.037-0.062c0.015-0.068,0.04-0.123,0.09-0.165
		C2.501,21.917,2.631,21.767,2.816,21.767"/>
	<path fill="#252B60" d="M3.203,22.809c-0.062,0.089-0.107,0.133-0.25,0.3c-0.187,0.222-0.286,0.401-0.449,0.8
		c0.026-0.003,0.065-0.005,0.107-0.005c0.021,0,0.039,0,0.066,0.001l0.02-0.042c0.092-0.197,0.215-0.462,0.388-0.667l0.06-0.07
		c0.178-0.208,0.288-0.332,0.357-0.616c0.024-0.101,0.044-0.191,0.112-0.256c0.061-0.059,0.138-0.084,0.216-0.084
		c0.066,0,0.116,0.016,0.188,0.046c0.065,0.028,0.089,0.033,0.158,0.033c0.024,0,0.041-0.001,0.057-0.002l-0.093,0.125l0.126,0.089
		c-0.158,0.046-0.242,0.199-0.27,0.27c-0.005,0.014-0.008,0.023-0.008,0.033c0,0.01,0.005,0.021,0.021,0.021
		c0.017,0,0.03-0.013,0.053-0.04c0.077-0.093,0.138-0.157,0.423-0.246l-0.201-0.151l0.151-0.222H4.295
		c-0.09,0-0.15-0.001-0.229-0.037c-0.106-0.049-0.161-0.07-0.255-0.07c-0.115,0-0.22,0.041-0.307,0.121
		c-0.1,0.092-0.13,0.214-0.166,0.349C3.31,22.59,3.277,22.704,3.203,22.809"/>
	<path fill="#252B60" d="M3.508,23.714c-0.076,0.102-0.179,0.236-0.259,0.378c0.025,0.012,0.109,0.057,0.138,0.073
		c0.092-0.138,0.219-0.308,0.303-0.437c0.076-0.117,0.106-0.167,0.111-0.324c0.001-0.027,0.001-0.052,0.004-0.077
		c0.007-0.081,0.028-0.164,0.105-0.239c0.057-0.057,0.14-0.086,0.222-0.086c0.08,0,0.126,0.023,0.195,0.023
		c0.049,0,0.085-0.012,0.117-0.024l0.025-0.009l-0.061,0.146l0.144,0.058C4.461,23.253,4.26,23.499,4.26,23.79
		c0,0.105,0.016,0.202,0.039,0.288c0.002,0.009,0.008,0.019,0.022,0.019c0.013,0,0.022-0.008,0.024-0.023l0.001-0.03
		c0.004-0.089,0.011-0.23,0.046-0.356c0.06-0.212,0.221-0.412,0.381-0.507l-0.229-0.1l0.098-0.241l-0.107,0.023
		c-0.065,0.013-0.113,0.025-0.17,0.025c-0.038,0-0.08-0.005-0.13-0.017c-0.039-0.009-0.08-0.017-0.138-0.017
		c-0.105,0-0.218,0.04-0.295,0.114c-0.141,0.134-0.149,0.279-0.158,0.408C3.633,23.546,3.601,23.589,3.508,23.714"/>
	<path fill="#252B60" d="M6.917,23.795C6.908,23.783,6.9,23.777,6.89,23.777c-0.016,0-0.024,0.011-0.024,0.023
		c0,0.019,0.013,0.041,0.046,0.097c0.101,0.171,0.226,0.344,0.38,0.506c0.166,0.177,0.361,0.341,0.57,0.489l0.065,0.045
		c0.009,0.007,0.016,0.011,0.024,0.011c0.013,0,0.022-0.013,0.022-0.024c0-0.006-0.002-0.013-0.01-0.02
		c-0.194-0.177-0.403-0.393-0.598-0.599C7.212,24.142,7.056,23.969,6.917,23.795"/>
	<path fill="#252B60" d="M2.642,23.193c0.02-0.033,0.08-0.114,0.104-0.14c-0.103-0.207-0.27-0.405-0.343-0.483l-0.061,0.06
		C2.412,22.732,2.53,22.93,2.642,23.193"/>
	<path fill="#252B60" d="M1.668,21.993c-0.012-0.011-0.015-0.017-0.015-0.025c0-0.009,0.007-0.02,0.021-0.02
		c0.005,0,0.011,0.001,0.017,0.004c0.099,0.04,0.182,0.086,0.256,0.144c0.062,0.048,0.124,0.106,0.184,0.176l-0.056,0.064
		C2.007,22.279,1.784,22.092,1.668,21.993"/>
	<path fill="#252B60" d="M2.61,22.438l-0.072-0.044c0.046-0.11,0.104-0.211,0.171-0.287c0.048-0.055,0.093-0.098,0.143-0.142
		c0.012-0.009,0.019-0.017,0.031-0.017c0.013,0,0.022,0.01,0.022,0.021c0,0.005-0.002,0.012-0.008,0.02
		C2.817,22.115,2.659,22.365,2.61,22.438"/>
	<path fill="#252B60" d="M1.709,23.055c-0.018,0.007-0.025,0.011-0.035,0.011c-0.015,0-0.021-0.012-0.021-0.021
		s0.004-0.015,0.014-0.022c0.163-0.127,0.307-0.178,0.505-0.211l0.023,0.08L1.709,23.055z"/>
	<path fill="#252B60" d="M5.117,22.024c0-0.047,0.024-0.13,0.11-0.13c0.029,0,0.057,0.007,0.08,0.017
		c0.032,0.015,0.053,0.036,0.053,0.059c0,0.024-0.024,0.048-0.06,0.077c-0.038,0.03-0.085,0.059-0.124,0.059
		C5.13,22.105,5.117,22.061,5.117,22.024"/>
	<path fill="#252B60" d="M3.769,22.412c0-0.057,0.035-0.12,0.101-0.12c0.029,0,0.064,0.012,0.089,0.036
		c0.015,0.013,0.021,0.028,0.021,0.042c0,0.032-0.031,0.062-0.066,0.083c-0.028,0.016-0.057,0.027-0.083,0.027
		C3.79,22.481,3.769,22.456,3.769,22.412"/>
	<path fill="#252B60" d="M4.081,23.231c0-0.013,0.001-0.029,0.006-0.045c0.011-0.035,0.033-0.068,0.089-0.068
		c0.025,0,0.053,0.006,0.076,0.022c0.02,0.013,0.028,0.031,0.028,0.048c0,0.057-0.096,0.124-0.144,0.124
		C4.102,23.312,4.081,23.279,4.081,23.231"/>
	<path fill="#252B60" d="M3.558,24.908c-0.18,0-0.259-0.085-0.259-0.192c0-0.188,0.331-0.374,0.628-0.488l0.077,0.1
		c-0.184,0.073-0.553,0.23-0.553,0.366c0,0.047,0.028,0.082,0.14,0.082c0.194,0,0.402-0.094,0.595-0.188
		c0.015-0.007,0.032-0.014,0.048-0.014c0.025,0,0.041,0.009,0.06,0.034l0.032,0.045C4.101,24.775,3.82,24.908,3.558,24.908"/>
	<path fill="#252B60" d="M4.052,24.959c-0.175,0.098-0.357,0.163-0.518,0.163c-0.18,0-0.339-0.077-0.472-0.278
		c-0.056-0.084-0.1-0.19-0.153-0.285c-0.064-0.111-0.133-0.171-0.254-0.171c-0.11,0-0.218,0.045-0.332,0.095l0.005,0.025
		c0.009,0.041,0.025,0.071,0.063,0.071c0.018,0,0.035-0.009,0.044-0.012c0.064-0.02,0.11-0.037,0.175-0.037
		c0.1,0,0.147,0.059,0.215,0.202l0.025,0.054C2.783,24.809,2.621,24.82,2.5,24.82H2.443l0.009,0.058
		c0.004,0.023,0.013,0.044,0.033,0.053c0.024,0.013,0.058,0.014,0.118,0.014c0.151,0,0.262-0.019,0.325-0.034
		c0.164,0.242,0.388,0.336,0.605,0.336c0.185,0,0.372-0.068,0.551-0.166L4.052,24.959z"/>
	<path fill="#252B60" d="M4.232,25.019l-0.032-0.122c0.273-0.147,0.523-0.266,0.922-0.305c0.008,0.152-0.002,0.346,0.11,0.346
		c0.104,0,0.33-0.268,0.59-0.602c0.024,0.023,0.062,0.047,0.097,0.073l-0.066,0.086c-0.254,0.327-0.471,0.606-0.648,0.606
		c-0.166,0-0.229-0.195-0.231-0.342C4.72,24.785,4.481,24.869,4.232,25.019"/>
	<path fill="#252B60" d="M7.748,22.352c-0.104,0-0.133-0.057-0.133-0.138c0-0.167,0.105-0.408,0.171-0.545H7.626
		c-0.084,0.162-0.414,0.682-0.591,0.897l0.102,0.11c0.096-0.106,0.201-0.287,0.315-0.465h0.021c0,0.009-0.001,0.02-0.001,0.029
		c0,0.15,0.077,0.262,0.267,0.262c0.117,0,0.3-0.059,0.473-0.117c0.143-0.049,0.275-0.1,0.34-0.118v-0.16
		c-0.074,0.022-0.226,0.081-0.383,0.136C8.004,22.3,7.842,22.352,7.748,22.352"/>
	<path fill="#252B60" d="M8.103,22.834c0.16-0.067,0.445-0.182,0.61-0.242V22.43c-0.331,0.123-0.911,0.363-1.307,0.578
		c0.011,0.013,0.08,0.11,0.087,0.122c0.167-0.069,0.318-0.114,0.453-0.114c0.19,0,0.346,0,0.606-0.061v-0.122
		c-0.146,0.026-0.302,0.059-0.402,0.059c-0.06,0-0.077-0.008-0.077-0.028C8.072,22.852,8.08,22.844,8.103,22.834"/>
	<polygon fill="#252B60" points="4.635,23.703 5.314,23.703 5.263,23.581 4.699,23.581 	"/>
	<path fill="#252B60" d="M2.253,24.311c0.071,0,0.13-0.024,0.186-0.047c0.053-0.021,0.106-0.042,0.178-0.042
		c0.17,0,0.38,0.083,0.565,0.161c0.01,0.004,0.022,0.007,0.034,0.007c0.029,0,0.052-0.013,0.066-0.041l0.024-0.044
		c-0.203-0.118-0.527-0.245-0.696-0.245c-0.077,0-0.133,0.02-0.187,0.042c-0.06,0.024-0.111,0.049-0.166,0.049
		c-0.134,0-0.478-0.133-0.478-0.262c0-0.151,0.547-0.21,0.607-0.21l0.055-0.124c-0.397,0-0.87,0.14-0.87,0.324
		c0,0.053,0.03,0.08,0.03,0.129c0,0.066-0.03,0.112-0.03,0.186c0,0.049,0.029,0.112,0.063,0.166
		c0.037,0.057,0.081,0.094,0.081,0.143c0,0.035-0.024,0.078-0.024,0.162c0,0.18,0.103,0.288,0.302,0.502l0.04,0.043
		c-0.165,0.063-0.472,0.196-0.543,0.227c-0.249,0.104-0.311,0.23-0.311,0.43c0,0.076,0,0.164,0.005,0.242h0.048
		c0.1,0,0.111-0.059,0.111-0.116c0-0.038-0.001-0.083-0.001-0.13c0.001-0.111,0.005-0.209,0.183-0.289
		c0.072-0.031,0.424-0.176,0.686-0.287c0.077-0.033,0.149-0.061,0.229-0.061c0.089,0,0.191,0.038,0.319,0.114
		c0.108,0.063,0.221,0.149,0.31,0.249l0.113-0.086c-0.097-0.114-0.231-0.217-0.366-0.296c-0.134-0.08-0.253-0.126-0.354-0.126
		c-0.044,0-0.08,0.008-0.11,0.016c-0.036,0.01-0.069,0.02-0.112,0.02c-0.049,0-0.09-0.012-0.15-0.081
		c-0.022-0.024-0.166-0.188-0.197-0.236c-0.015-0.022-0.041-0.067-0.041-0.121c0-0.022,0.004-0.049,0.017-0.073
		c0.124,0.096,0.276,0.154,0.462,0.178l-0.025-0.127c-0.267-0.07-0.551-0.305-0.551-0.457c0-0.032,0.008-0.054,0.02-0.082
		C1.878,24.211,2.121,24.311,2.253,24.311"/>
	<path fill="#252B60" d="M4.165,24.334c0.167-0.119,0.34-0.132,0.479-0.132c0.084,0,0.182,0.012,0.286,0.025
		c0.084,0.011,0.16,0.019,0.25,0.019c0.182,0,0.365-0.066,0.445-0.101c0.022,0.028,0.061,0.065,0.091,0.092
		c-0.039,0.024-0.283,0.157-0.533,0.157c-0.11,0-0.215-0.013-0.306-0.025c-0.08-0.01-0.166-0.02-0.25-0.02
		c-0.092,0-0.276,0.026-0.391,0.081L4.165,24.334z"/>
	<path fill="#252B60" d="M6.632,24.809c-0.199,0.42-0.502,0.726-0.813,0.902c-0.147,0.084-0.28,0.139-0.567,0.139H4.631
		c-0.222,0-0.361,0.028-0.47,0.057c-0.117,0.03-0.191,0.061-0.31,0.061c-0.175,0-0.337-0.086-0.416-0.168l0.146-0.116l-0.073-0.097
		C3.466,25.616,2.946,26,2.837,26.087l-0.007-0.004c0.003-0.026,0.003-0.051,0.003-0.075c0-0.292-0.136-0.362-0.342-0.445
		l-0.139,0.083c0.283,0.095,0.353,0.17,0.353,0.382c0,0.167-0.06,0.233-0.146,0.283c-0.089,0.053-0.199,0.076-0.296,0.076
		c-0.041,0-0.06,0.008-0.074,0.023c-0.016,0.016-0.024,0.039-0.024,0.072v0.047h0.033c0.178,0,0.343-0.027,0.523-0.17l0.588-0.46
		c0.084,0.096,0.295,0.229,0.545,0.229c0.141,0,0.231-0.034,0.361-0.067c0.101-0.025,0.199-0.049,0.415-0.049h0.623
		c0.319,0,0.473-0.066,0.643-0.162c0.37-0.207,0.685-0.558,0.862-0.96C6.713,24.86,6.669,24.834,6.632,24.809"/>
	<path fill="#252B60" d="M5.631,25.309c0.161-0.258,0.304-0.486,0.656-0.673c-0.037-0.022-0.09-0.058-0.118-0.075
		c-0.137,0.06-0.272,0.18-0.388,0.3c-0.266,0.276-0.242,0.437-0.522,0.544c-0.07,0.025-0.157,0.055-0.267,0.08
		c-0.065-0.2-0.229-0.399-0.401-0.399c-0.12,0-0.258,0.062-0.417,0.133c-0.187,0.083-0.358,0.177-0.413,0.212l0.073,0.1
		c0.056-0.031,0.216-0.111,0.377-0.18c0.14-0.061,0.266-0.109,0.351-0.109c0.137,0,0.226,0.156,0.275,0.28
		c-0.179,0.043-0.474,0.054-0.563,0.054c-0.041,0-0.056,0.006-0.07,0.018c-0.013,0.013-0.024,0.033-0.03,0.062L4.162,25.7h0.096
		c0.497,0,0.966-0.079,1.268-0.262c0.042,0.012,0.08,0.021,0.127,0.021c0.172,0,0.351-0.096,0.462-0.182
		c0.04-0.03,0.049-0.059,0.049-0.089c0-0.015-0.001-0.028-0.002-0.041l-0.005-0.052c-0.159,0.126-0.292,0.221-0.457,0.221
		C5.67,25.316,5.649,25.313,5.631,25.309"/>
	<path fill="#252B60" d="M21.293,25.776c-0.226,0-0.411-0.185-0.411-0.411c0-0.226,0.185-0.41,0.411-0.41s0.408,0.185,0.408,0.41
		C21.702,25.592,21.52,25.776,21.293,25.776 M21.293,25.033c-0.183,0-0.333,0.149-0.333,0.332s0.15,0.335,0.333,0.335
		s0.333-0.152,0.333-0.335S21.476,25.033,21.293,25.033 M21.372,25.585c-0.021-0.063,0.009-0.183-0.08-0.183h-0.07v0.183h-0.1
		v-0.443h0.198c0.081,0,0.15,0.015,0.15,0.112c0,0.066-0.039,0.096-0.1,0.107c0.12,0.018,0.076,0.137,0.11,0.224H21.372z
		 M21.28,25.211h-0.059v0.124h0.063c0.045,0,0.083-0.007,0.083-0.063C21.367,25.218,21.326,25.211,21.28,25.211"/>
</g>
</svg>
